<?xml version="1.0" encoding="UTF-8"?>
<svg xmlns="http://www.w3.org/2000/svg" width="1600" height="900" viewBox="0 0 1600 900" preserveAspectRatio="xMidYMid slice">
  <defs>
    <linearGradient id="g" x1="0" y1="0" x2="1" y2="1">
      <stop offset="0%" stop-color="#fff8f0" stop-opacity="0.9" />
      <stop offset="100%" stop-color="#ffe4b5" stop-opacity="0.9" />
    </linearGradient>
    <pattern id="p" width="200" height="200" patternUnits="userSpaceOnUse">
      <rect width="200" height="200" fill="transparent" />
      <g fill="#f3e0cc" opacity="0.18">
        <path d="M30 80 c20 -30 60 -30 80 0" stroke="#d6b89a" stroke-width="3" fill="none"/>
        <circle cx="50" cy="50" r="18" />
        <path d="M40 35 q15 -18 30 0" stroke="#d6b89a" stroke-width="2" fill="none"/>
      </g>
      <g transform="translate(100,100)" fill="#f3e0cc" opacity="0.12">
        <circle cx="20" cy="20" r="14" />
        <path d="M10 10 q10 -12 20 0" stroke="#d6b89a" stroke-width="2" fill="none"/>
      </g>
    </pattern>
  </defs>
  <rect width="100%" height="100%" fill="url(#g)" />
  <rect width="100%" height="100%" fill="url(#p)" />
  <!-- subtle coffee bean shapes -->
  <g fill="#d6b89a" opacity="0.06">
    <ellipse cx="200" cy="120" rx="60" ry="32" transform="rotate(-20 200 120)" />
    <ellipse cx="480" cy="60" rx="60" ry="32" transform="rotate(15 480 60)" />
    <ellipse cx="860" cy="140" rx="60" ry="32" transform="rotate(-10 860 140)" />
    <ellipse cx="1240" cy="80" rx="60" ry="32" transform="rotate(12 1240 80)" />
    <ellipse cx="1400" cy="300" rx="80" ry="40" transform="rotate(-25 1400 300)" />
  </g>
</svg>
